<svg xmlns="http://www.w3.org/2000/svg" viewBox="0 0 240 520" fill="none">
  <path d="M116 10C140 28 145 58 162 77C176 94 172 114 163 130C189 160 175 196 157 224C184 254 171 287 157 315C184 346 173 381 157 413C144 439 137 471 116 510C88 492 82 462 72 432C58 390 53 349 74 316C60 290 53 258 66 226C49 195 51 164 72 132C60 111 56 90 71 72C86 54 93 28 116 10Z" fill="#0f6d62" fill-opacity="0.08" stroke="#0f6d62" stroke-opacity="0.16" stroke-width="6"/>
  <path d="M135 55C144 69 146 87 156 103M129 140C142 155 145 175 152 191M125 229C139 243 142 261 149 278M121 316C132 333 136 352 142 369M113 401C121 417 123 433 127 449" stroke="#c89f4a" stroke-opacity="0.28" stroke-width="4" stroke-linecap="round"/>
</svg>